<svg width="21" height="20" viewBox="0 0 21 20" fill="none" xmlns="http://www.w3.org/2000/svg">
<path d="M10.375 1.99988C12.5841 1.99988 14.375 3.79074 14.375 5.99988C14.375 6.54431 14.2667 7.06177 14.0708 7.53327C12.4298 7.70904 10.8788 8.5584 9.8554 9.9666C8.5962 9.8033 7.51976 9.0545 6.90917 7.99859C6.56962 7.41137 6.37498 6.72986 6.37498 5.99988C6.37498 3.79074 8.16584 1.99988 10.375 1.99988ZM16.1385 7.67236C16.2925 7.14099 16.375 6.57964 16.375 5.99988C16.375 2.68617 13.6887 -0.00012107 10.375 -0.00012207C7.06127 -0.00012307 4.37498 2.68617 4.37498 5.99988C4.37498 6.57966 4.45747 7.14104 4.61147 7.67242C4.07435 7.80476 3.547 8.01399 3.04495 8.30385C0.175192 9.9607 -0.808058 13.6302 0.848792 16.5C2.50565 19.3698 6.17519 20.353 9.0449 18.6962C9.547 18.4063 9.9919 18.0542 10.375 17.6552C10.7582 18.0542 11.203 18.4062 11.705 18.6961C14.5748 20.3529 18.2443 19.3697 19.9012 16.4999C21.558 13.6302 20.5748 9.9606 17.705 8.30377C17.203 8.01392 16.6756 7.80469 16.1385 7.67236ZM11.5293 15.9342C12.1977 14.4251 12.2377 12.6571 11.5299 11.0667C12.3009 10.0577 13.4875 9.4999 14.7072 9.4991C15.3854 9.4987 16.0729 9.6709 16.705 10.0358C18.6182 11.1404 19.2737 13.5868 18.1691 15.4999C17.0645 17.4131 14.6182 18.0686 12.705 16.964C12.2336 16.6919 11.8397 16.3395 11.5293 15.9342ZM9.7399 11.9668C10.2282 13.139 10.1179 14.4456 9.5087 15.5023C9.1699 16.0899 8.6771 16.5991 8.04495 16.9641C6.13178 18.0687 3.68542 17.4132 2.58085 15.5C1.47628 13.5868 2.13178 11.1405 4.04495 10.0359C4.51642 9.7637 5.01866 9.5987 5.5249 9.5326C6.49767 10.8659 8.00873 11.7845 9.7399 11.9668Z" fill="#505050"/>
</svg>
