<svg width="25" height="24" viewBox="0 0 25 24" fill="none" xmlns="http://www.w3.org/2000/svg">
<path d="M4.625 10.5C3.8 10.5 3.125 11.175 3.125 12C3.125 12.825 3.8 13.5 4.625 13.5C5.45 13.5 6.125 12.825 6.125 12C6.125 11.175 5.45 10.5 4.625 10.5ZM19.625 10.5C18.8 10.5 18.125 11.175 18.125 12C18.125 12.825 18.8 13.5 19.625 13.5C20.45 13.5 21.125 12.825 21.125 12C21.125 11.175 20.45 10.5 19.625 10.5ZM12.125 10.5C11.3 10.5 10.625 11.175 10.625 12C10.625 12.825 11.3 13.5 12.125 13.5C12.95 13.5 13.625 12.825 13.625 12C13.625 11.175 12.95 10.5 12.125 10.5Z" fill="#A6A3A4"/>
</svg>
