<svg width="26" height="26" viewBox="0 0 26 26" fill="none" xmlns="http://www.w3.org/2000/svg">
<path d="M6.375 5.25V1.5C6.375 0.80965 6.93465 0.25 7.625 0.25H17.625C18.3154 0.25 18.875 0.80965 18.875 1.5V5.25H23.875C24.5654 5.25 25.125 5.80965 25.125 6.5V24C25.125 24.6904 24.5654 25.25 23.875 25.25H1.375C0.68465 25.25 0.125 24.6904 0.125 24V6.5C0.125 5.80965 0.68465 5.25 1.375 5.25H6.375ZM2.625 19V22.75H22.625V19H2.625ZM2.625 16.5H22.625V7.75H2.625V16.5ZM8.875 2.75V5.25H16.375V2.75H8.875ZM11.375 12.75H13.875V15.25H11.375V12.75Z" fill="#505050"/>
</svg>
